<svg xmlns="http://www.w3.org/2000/svg" xmlns:xlink="http://www.w3.org/1999/xlink" width="100%" height="100%" preserveAspectRatio="xMinYMin meet" version="1.1" viewBox="0 0 560 420"><desc>Matlab Figure Converted by PLOT2SVG written by Juerg Schwizer</desc><g id="topgroup"><rect width="560" height="420" x="0" y="0" fill="#fff" stroke="none"/><g id="ID000000"><clipPath id="ID000001"><rect width="448" height="302.4" x="72.8" y="46.2"/></clipPath><polygon fill="#fff" fill-opacity="1" stroke="none" stroke-dasharray="none" stroke-opacity="1" stroke-width=".5pt" points="72.8 348.6 520.8 348.6 520.8 46.2 72.8 46.2"/><polygon fill="#fff" fill-opacity="1" stroke="none" stroke-dasharray="none" stroke-opacity="1" stroke-width=".5pt" points="72.8 46.2 520.8 46.2 520.8 46.2 72.8 46.2"/><polygon fill="#fff" fill-opacity="1" stroke="none" stroke-dasharray="none" stroke-opacity="1" stroke-width=".5pt" points="72.8 348.6 72.8 348.6 72.8 46.2 72.8 46.2"/><polyline fill="none" stroke="#000" stroke-dasharray="2pt 2pt" stroke-width=".5pt" points="88.248 348.6 88.248 46.2"/><polyline fill="none" stroke="#000" stroke-dasharray="2pt 2pt" stroke-width=".5pt" points="119.145 348.6 119.145 46.2"/><polyline fill="none" stroke="#000" stroke-dasharray="2pt 2pt" stroke-width=".5pt" points="150.041 348.6 150.041 46.2"/><polyline fill="none" stroke="#000" stroke-dasharray="2pt 2pt" stroke-width=".5pt" points="180.938 348.6 180.938 46.2"/><polyline fill="none" stroke="#000" stroke-dasharray="2pt 2pt" stroke-width=".5pt" points="211.834 348.6 211.834 46.2"/><polyline fill="none" stroke="#000" stroke-dasharray="2pt 2pt" stroke-width=".5pt" points="242.731 348.6 242.731 46.2"/><polyline fill="none" stroke="#000" stroke-dasharray="2pt 2pt" stroke-width=".5pt" points="273.628 348.6 273.628 46.2"/><polyline fill="none" stroke="#000" stroke-dasharray="2pt 2pt" stroke-width=".5pt" points="304.524 348.6 304.524 46.2"/><polyline fill="none" stroke="#000" stroke-dasharray="2pt 2pt" stroke-width=".5pt" points="335.421 348.6 335.421 46.2"/><polyline fill="none" stroke="#000" stroke-dasharray="2pt 2pt" stroke-width=".5pt" points="366.317 348.6 366.317 46.2"/><polyline fill="none" stroke="#000" stroke-dasharray="2pt 2pt" stroke-width=".5pt" points="397.214 348.6 397.214 46.2"/><polyline fill="none" stroke="#000" stroke-dasharray="2pt 2pt" stroke-width=".5pt" points="428.11 348.6 428.11 46.2"/><polyline fill="none" stroke="#000" stroke-dasharray="2pt 2pt" stroke-width=".5pt" points="459.007 348.6 459.007 46.2"/><polyline fill="none" stroke="#000" stroke-dasharray="2pt 2pt" stroke-width=".5pt" points="489.903 348.6 489.903 46.2"/><polyline fill="none" stroke="#000" stroke-dasharray="2pt 2pt" stroke-width=".5pt" points="72.8 273 520.8 273"/><polyline fill="none" stroke="#000" stroke-dasharray="2pt 2pt" stroke-width=".5pt" points="72.8 197.4 520.8 197.4"/><polyline fill="none" stroke="#000" stroke-dasharray="2pt 2pt" stroke-width=".5pt" points="72.8 121.8 520.8 121.8"/><polyline fill="none" stroke="#000" stroke-dasharray="2pt 2pt" stroke-width=".5pt" points="88.248 46.2 88.248 46.2"/><polyline fill="none" stroke="#000" stroke-dasharray="2pt 2pt" stroke-width=".5pt" points="119.145 46.2 119.145 46.2"/><polyline fill="none" stroke="#000" stroke-dasharray="2pt 2pt" stroke-width=".5pt" points="150.041 46.2 150.041 46.2"/><polyline fill="none" stroke="#000" stroke-dasharray="2pt 2pt" stroke-width=".5pt" points="180.938 46.2 180.938 46.2"/><polyline fill="none" stroke="#000" stroke-dasharray="2pt 2pt" stroke-width=".5pt" points="211.834 46.2 211.834 46.2"/><polyline fill="none" stroke="#000" stroke-dasharray="2pt 2pt" stroke-width=".5pt" points="242.731 46.2 242.731 46.2"/><polyline fill="none" stroke="#000" stroke-dasharray="2pt 2pt" stroke-width=".5pt" points="273.628 46.2 273.628 46.2"/><polyline fill="none" stroke="#000" stroke-dasharray="2pt 2pt" stroke-width=".5pt" points="304.524 46.2 304.524 46.2"/><polyline fill="none" stroke="#000" stroke-dasharray="2pt 2pt" stroke-width=".5pt" points="335.421 46.2 335.421 46.2"/><polyline fill="none" stroke="#000" stroke-dasharray="2pt 2pt" stroke-width=".5pt" points="366.317 46.2 366.317 46.2"/><polyline fill="none" stroke="#000" stroke-dasharray="2pt 2pt" stroke-width=".5pt" points="397.214 46.2 397.214 46.2"/><polyline fill="none" stroke="#000" stroke-dasharray="2pt 2pt" stroke-width=".5pt" points="428.11 46.2 428.11 46.2"/><polyline fill="none" stroke="#000" stroke-dasharray="2pt 2pt" stroke-width=".5pt" points="459.007 46.2 459.007 46.2"/><polyline fill="none" stroke="#000" stroke-dasharray="2pt 2pt" stroke-width=".5pt" points="489.903 46.2 489.903 46.2"/><polyline fill="none" stroke="#000" stroke-dasharray="2pt 2pt" stroke-width=".5pt" points="72.8 46.2 520.8 46.2"/><polyline fill="none" stroke="#000" stroke-dasharray="2pt 2pt" stroke-width=".5pt" points="72.8 273 72.8 273"/><polyline fill="none" stroke="#000" stroke-dasharray="2pt 2pt" stroke-width=".5pt" points="72.8 197.4 72.8 197.4"/><polyline fill="none" stroke="#000" stroke-dasharray="2pt 2pt" stroke-width=".5pt" points="72.8 121.8 72.8 121.8"/><polyline fill="none" stroke="#000" stroke-dasharray="2pt 2pt" stroke-width=".5pt" points="72.8 348.6 72.8 46.2"/><g><defs><filter id="ID000002" width="100%" height="100%" x="0%" y="0%"><feImage preserveAspectRatio="xMidYMid slice" result="pic" xlink:href="water_stones.jpg"/><feComposite in="pic" in2="SourceGraphic" operator="atop" result="obj"/><feGaussianBlur in="SourceAlpha" result="blur" stdDeviation="5"/><feOffset dx="10" dy="10" in="blur" result="shade"/><feComposite in="obj" in2="shade" operator="over" result="front"/><feComposite in="pic" in2="pic" k1="0" k2=".2" k3="0" k4="0" operator="arithmetic" result="background"/><feComposite in="front" in2="background" operator="over" result="final"/></filter></defs><g id="ID000003" clip-path="url(#ID000001)" filter="url(#ID000002)"><rect width="472" height="326.4" x="60.8" y="34.2" fill="none" stroke="none"/><g id="ID000004" clip-path="url(#ID000001)"><polyline fill="#00008f" fill-opacity="1" stroke="#000" stroke-dasharray="none" stroke-opacity="1" stroke-width=".5pt" points="75.89 348.6 75.89 174.72 100.607 174.72 100.607 348.6"/><polyline fill="#00008f" fill-opacity="1" stroke="#000" stroke-dasharray="none" stroke-opacity="1" stroke-width=".5pt" points="106.786 348.6 106.786 148.26 131.503 148.26 131.503 348.6"/><polyline fill="#00008f" fill-opacity="1" stroke="#000" stroke-dasharray="none" stroke-opacity="1" stroke-width=".5pt" points="137.683 348.6 137.683 148.26 162.4 148.26 162.4 348.6"/><polyline fill="#00008f" fill-opacity="1" stroke="#000" stroke-dasharray="none" stroke-opacity="1" stroke-width=".5pt" points="168.579 348.6 168.579 147.504 193.297 147.504 193.297 348.6"/><polyline fill="#00008f" fill-opacity="1" stroke="#000" stroke-dasharray="none" stroke-opacity="1" stroke-width=".5pt" points="199.476 348.6 199.476 150.528 224.193 150.528 224.193 348.6"/><polyline fill="#00008f" fill-opacity="1" stroke="#000" stroke-dasharray="none" stroke-opacity="1" stroke-width=".5pt" points="230.372 348.6 230.372 152.796 255.09 152.796 255.09 348.6"/><polyline fill="#00008f" fill-opacity="1" stroke="#000" stroke-dasharray="none" stroke-opacity="1" stroke-width=".5pt" points="261.269 348.6 261.269 139.188 285.986 139.188 285.986 348.6"/><polyline fill="#00008f" fill-opacity="1" stroke="#000" stroke-dasharray="none" stroke-opacity="1" stroke-width=".5pt" points="292.166 348.6 292.166 161.868 316.883 161.868 316.883 348.6"/><polyline fill="#00008f" fill-opacity="1" stroke="#000" stroke-dasharray="none" stroke-opacity="1" stroke-width=".5pt" points="323.062 348.6 323.062 168.672 347.779 168.672 347.779 348.6"/><polyline fill="#00008f" fill-opacity="1" stroke="#000" stroke-dasharray="none" stroke-opacity="1" stroke-width=".5pt" points="353.959 348.6 353.959 159.6 378.676 159.6 378.676 348.6"/><polyline fill="#00008f" fill-opacity="1" stroke="#000" stroke-dasharray="none" stroke-opacity="1" stroke-width=".5pt" points="384.855 348.6 384.855 159.6 409.572 159.6 409.572 348.6"/><polyline fill="#00008f" fill-opacity="1" stroke="#000" stroke-dasharray="none" stroke-opacity="1" stroke-width=".5pt" points="415.752 348.6 415.752 170.94 440.469 170.94 440.469 348.6"/><polyline fill="#00008f" fill-opacity="1" stroke="#000" stroke-dasharray="none" stroke-opacity="1" stroke-width=".5pt" points="446.648 348.6 446.648 172.452 471.366 172.452 471.366 348.6"/><polyline fill="#00008f" fill-opacity="1" stroke="#000" stroke-dasharray="none" stroke-opacity="1" stroke-width=".5pt" points="477.545 348.6 477.545 176.232 502.262 176.232 502.262 348.6"/></g></g><g id="ID000005" clip-path="url(#ID000001)"><polyline fill="none" stroke="#000" stroke-dasharray="none" stroke-width=".5pt" points="72.8 348.6 520.8 348.6"/></g><g id="ID000006" clip-path="url(#ID000001)"><g id="ID000007" clip-path="url(#ID000001)"><polyline fill="none" fill-opacity="1" stroke="#000" stroke-dasharray="none" stroke-opacity="1" stroke-width=".5pt" points="75.89 348.6 75.89 174.72 100.607 174.72 100.607 348.6"/><polyline fill="none" fill-opacity="1" stroke="#000" stroke-dasharray="none" stroke-opacity="1" stroke-width=".5pt" points="106.786 348.6 106.786 148.26 131.503 148.26 131.503 348.6"/><polyline fill="none" fill-opacity="1" stroke="#000" stroke-dasharray="none" stroke-opacity="1" stroke-width=".5pt" points="137.683 348.6 137.683 148.26 162.4 148.26 162.4 348.6"/><polyline fill="none" fill-opacity="1" stroke="#000" stroke-dasharray="none" stroke-opacity="1" stroke-width=".5pt" points="168.579 348.6 168.579 147.504 193.297 147.504 193.297 348.6"/><polyline fill="none" fill-opacity="1" stroke="#000" stroke-dasharray="none" stroke-opacity="1" stroke-width=".5pt" points="199.476 348.6 199.476 150.528 224.193 150.528 224.193 348.6"/><polyline fill="none" fill-opacity="1" stroke="#000" stroke-dasharray="none" stroke-opacity="1" stroke-width=".5pt" points="230.372 348.6 230.372 152.796 255.09 152.796 255.09 348.6"/><polyline fill="none" fill-opacity="1" stroke="#000" stroke-dasharray="none" stroke-opacity="1" stroke-width=".5pt" points="261.269 348.6 261.269 139.188 285.986 139.188 285.986 348.6"/><polyline fill="none" fill-opacity="1" stroke="#000" stroke-dasharray="none" stroke-opacity="1" stroke-width=".5pt" points="292.166 348.6 292.166 161.868 316.883 161.868 316.883 348.6"/><polyline fill="none" fill-opacity="1" stroke="#000" stroke-dasharray="none" stroke-opacity="1" stroke-width=".5pt" points="323.062 348.6 323.062 168.672 347.779 168.672 347.779 348.6"/><polyline fill="none" fill-opacity="1" stroke="#000" stroke-dasharray="none" stroke-opacity="1" stroke-width=".5pt" points="353.959 348.6 353.959 159.6 378.676 159.6 378.676 348.6"/><polyline fill="none" fill-opacity="1" stroke="#000" stroke-dasharray="none" stroke-opacity="1" stroke-width=".5pt" points="384.855 348.6 384.855 159.6 409.572 159.6 409.572 348.6"/><polyline fill="none" fill-opacity="1" stroke="#000" stroke-dasharray="none" stroke-opacity="1" stroke-width=".5pt" points="415.752 348.6 415.752 170.94 440.469 170.94 440.469 348.6"/><polyline fill="none" fill-opacity="1" stroke="#000" stroke-dasharray="none" stroke-opacity="1" stroke-width=".5pt" points="446.648 348.6 446.648 172.452 471.366 172.452 471.366 348.6"/><polyline fill="none" fill-opacity="1" stroke="#000" stroke-dasharray="none" stroke-opacity="1" stroke-width=".5pt" points="477.545 348.6 477.545 176.232 502.262 176.232 502.262 348.6"/></g></g><g id="ID000008"><g><g><text x="0" y="0" fill="#000" font-family="Arial" font-size="16pt" font-weight="bold" text-anchor="start" transform="translate(81.048,182.280) rotate(-270.0)">230</text></g></g></g><g id="ID000009"><g><g><text x="0" y="0" fill="#000" font-family="Arial" font-size="16pt" font-weight="bold" text-anchor="start" transform="translate(111.945,155.820) rotate(-270.0)">265</text></g></g></g><g id="ID000010"><g><g><text x="0" y="0" fill="#000" font-family="Arial" font-size="16pt" font-weight="bold" text-anchor="start" transform="translate(142.841,155.820) rotate(-270.0)">265</text></g></g></g><g id="ID000011"><g><g><text x="0" y="0" fill="#000" font-family="Arial" font-size="16pt" font-weight="bold" text-anchor="start" transform="translate(173.738,155.064) rotate(-270.0)">266</text></g></g></g><g id="ID000012"><g><g><text x="0" y="0" fill="#000" font-family="Arial" font-size="16pt" font-weight="bold" text-anchor="start" transform="translate(204.634,158.088) rotate(-270.0)">262</text></g></g></g><g id="ID000013"><g><g><text x="0" y="0" fill="#000" font-family="Arial" font-size="16pt" font-weight="bold" text-anchor="start" transform="translate(235.531,160.356) rotate(-270.0)">259</text></g></g></g><g id="ID000014"><g><g><text x="0" y="0" fill="#000" font-family="Arial" font-size="16pt" font-weight="bold" text-anchor="start" transform="translate(266.428,146.748) rotate(-270.0)">277</text></g></g></g><g id="ID000015"><g><g><text x="0" y="0" fill="#000" font-family="Arial" font-size="16pt" font-weight="bold" text-anchor="start" transform="translate(297.324,169.428) rotate(-270.0)">247</text></g></g></g><g id="ID000016"><g><g><text x="0" y="0" fill="#000" font-family="Arial" font-size="16pt" font-weight="bold" text-anchor="start" transform="translate(328.221,176.232) rotate(-270.0)">238</text></g></g></g><g id="ID000017"><g><g><text x="0" y="0" fill="#000" font-family="Arial" font-size="16pt" font-weight="bold" text-anchor="start" transform="translate(359.117,167.160) rotate(-270.0)">250</text></g></g></g><g id="ID000018"><g><g><text x="0" y="0" fill="#000" font-family="Arial" font-size="16pt" font-weight="bold" text-anchor="start" transform="translate(390.014,167.160) rotate(-270.0)">250</text></g></g></g><g id="ID000019"><g><g><text x="0" y="0" fill="#000" font-family="Arial" font-size="16pt" font-weight="bold" text-anchor="start" transform="translate(420.910,178.500) rotate(-270.0)">235</text></g></g></g><g id="ID000020"><g><g><text x="0" y="0" fill="#000" font-family="Arial" font-size="16pt" font-weight="bold" text-anchor="start" transform="translate(451.807,180.012) rotate(-270.0)">233</text></g></g></g><g id="ID000021"><g><g><text x="0" y="0" fill="#000" font-family="Arial" font-size="16pt" font-weight="bold" text-anchor="start" transform="translate(482.703,183.792) rotate(-270.0)">228</text></g></g></g><g id="ID000022"><g><g><text x="0" y="0" fill="#000" font-family="Arial" font-size="16pt" text-anchor="middle" transform="translate(296.300,31.721) rotate(-0.0)">Water Consumption per Person and Year</text></g></g></g><g id="ID000023"><g><g><text x="0" y="0" fill="#000" font-family="Arial" font-size="16pt" text-anchor="middle" transform="translate(22.300,198.398) rotate(-90.0)">Water consumption [l]</text></g></g></g></g><g><polyline fill="none" stroke="#000" stroke-dasharray="none" stroke-width=".5pt" points="88.248 348.6 88.248 344.12"/><polyline fill="none" stroke="#000" stroke-dasharray="none" stroke-width=".5pt" points="119.145 348.6 119.145 344.12"/><polyline fill="none" stroke="#000" stroke-dasharray="none" stroke-width=".5pt" points="150.041 348.6 150.041 344.12"/><polyline fill="none" stroke="#000" stroke-dasharray="none" stroke-width=".5pt" points="180.938 348.6 180.938 344.12"/><polyline fill="none" stroke="#000" stroke-dasharray="none" stroke-width=".5pt" points="211.834 348.6 211.834 344.12"/><polyline fill="none" stroke="#000" stroke-dasharray="none" stroke-width=".5pt" points="242.731 348.6 242.731 344.12"/><polyline fill="none" stroke="#000" stroke-dasharray="none" stroke-width=".5pt" points="273.628 348.6 273.628 344.12"/><polyline fill="none" stroke="#000" stroke-dasharray="none" stroke-width=".5pt" points="304.524 348.6 304.524 344.12"/><polyline fill="none" stroke="#000" stroke-dasharray="none" stroke-width=".5pt" points="335.421 348.6 335.421 344.12"/><polyline fill="none" stroke="#000" stroke-dasharray="none" stroke-width=".5pt" points="366.317 348.6 366.317 344.12"/><polyline fill="none" stroke="#000" stroke-dasharray="none" stroke-width=".5pt" points="397.214 348.6 397.214 344.12"/><polyline fill="none" stroke="#000" stroke-dasharray="none" stroke-width=".5pt" points="428.11 348.6 428.11 344.12"/><polyline fill="none" stroke="#000" stroke-dasharray="none" stroke-width=".5pt" points="459.007 348.6 459.007 344.12"/><polyline fill="none" stroke="#000" stroke-dasharray="none" stroke-width=".5pt" points="489.903 348.6 489.903 344.12"/><polyline fill="none" stroke="#000" stroke-dasharray="none" stroke-width=".5pt" points="72.8 348.6 520.8 348.6"/><polyline fill="none" stroke="#000" stroke-dasharray="none" stroke-width=".5pt" points="88.248 46.2 88.248 50.68"/><polyline fill="none" stroke="#000" stroke-dasharray="none" stroke-width=".5pt" points="119.145 46.2 119.145 50.68"/><polyline fill="none" stroke="#000" stroke-dasharray="none" stroke-width=".5pt" points="150.041 46.2 150.041 50.68"/><polyline fill="none" stroke="#000" stroke-dasharray="none" stroke-width=".5pt" points="180.938 46.2 180.938 50.68"/><polyline fill="none" stroke="#000" stroke-dasharray="none" stroke-width=".5pt" points="211.834 46.2 211.834 50.68"/><polyline fill="none" stroke="#000" stroke-dasharray="none" stroke-width=".5pt" points="242.731 46.2 242.731 50.68"/><polyline fill="none" stroke="#000" stroke-dasharray="none" stroke-width=".5pt" points="273.628 46.2 273.628 50.68"/><polyline fill="none" stroke="#000" stroke-dasharray="none" stroke-width=".5pt" points="304.524 46.2 304.524 50.68"/><polyline fill="none" stroke="#000" stroke-dasharray="none" stroke-width=".5pt" points="335.421 46.2 335.421 50.68"/><polyline fill="none" stroke="#000" stroke-dasharray="none" stroke-width=".5pt" points="366.317 46.2 366.317 50.68"/><polyline fill="none" stroke="#000" stroke-dasharray="none" stroke-width=".5pt" points="397.214 46.2 397.214 50.68"/><polyline fill="none" stroke="#000" stroke-dasharray="none" stroke-width=".5pt" points="428.11 46.2 428.11 50.68"/><polyline fill="none" stroke="#000" stroke-dasharray="none" stroke-width=".5pt" points="459.007 46.2 459.007 50.68"/><polyline fill="none" stroke="#000" stroke-dasharray="none" stroke-width=".5pt" points="489.903 46.2 489.903 50.68"/><polyline fill="none" stroke="#000" stroke-dasharray="none" stroke-width=".5pt" points="72.8 46.2 520.8 46.2"/><g><g><text x="0" y="0" fill="#000" font-family="Arial" font-size="16pt" text-anchor="start" transform="translate(69.368,354.648) rotate(90.0)">1980</text></g></g><g><g><text x="0" y="0" fill="#000" font-family="Arial" font-size="16pt" text-anchor="start" transform="translate(100.265,354.648) rotate(90.0)">1982</text></g></g><g><g><text x="0" y="0" fill="#000" font-family="Arial" font-size="16pt" text-anchor="start" transform="translate(131.161,354.648) rotate(90.0)">1984</text></g></g><g><g><text x="0" y="0" fill="#000" font-family="Arial" font-size="16pt" text-anchor="start" transform="translate(162.058,354.648) rotate(90.0)">1986</text></g></g><g><g><text x="0" y="0" fill="#000" font-family="Arial" font-size="16pt" text-anchor="start" transform="translate(192.954,354.648) rotate(90.0)">1988</text></g></g><g><g><text x="0" y="0" fill="#000" font-family="Arial" font-size="16pt" text-anchor="start" transform="translate(223.851,354.648) rotate(90.0)">1990</text></g></g><g><g><text x="0" y="0" fill="#000" font-family="Arial" font-size="16pt" text-anchor="start" transform="translate(254.748,354.648) rotate(90.0)">1992</text></g></g><g><g><text x="0" y="0" fill="#000" font-family="Arial" font-size="16pt" text-anchor="start" transform="translate(285.644,354.648) rotate(90.0)">1994</text></g></g><g><g><text x="0" y="0" fill="#000" font-family="Arial" font-size="16pt" text-anchor="start" transform="translate(316.541,354.648) rotate(90.0)">1996</text></g></g><g><g><text x="0" y="0" fill="#000" font-family="Arial" font-size="16pt" text-anchor="start" transform="translate(347.437,354.648) rotate(90.0)">1998</text></g></g><g><g><text x="0" y="0" fill="#000" font-family="Arial" font-size="16pt" text-anchor="start" transform="translate(378.334,354.648) rotate(90.0)">2000</text></g></g><g><g><text x="0" y="0" fill="#000" font-family="Arial" font-size="16pt" text-anchor="start" transform="translate(409.230,354.648) rotate(90.0)">2002</text></g></g><g><g><text x="0" y="0" fill="#000" font-family="Arial" font-size="16pt" text-anchor="start" transform="translate(440.127,354.648) rotate(90.0)">2004</text></g></g><g><g><text x="0" y="0" fill="#000" font-family="Arial" font-size="16pt" text-anchor="start" transform="translate(471.023,354.648) rotate(90.0)">2006</text></g></g><polyline fill="none" stroke="#000" stroke-dasharray="none" stroke-width=".5pt" points="72.8 273 77.28 273"/><polyline fill="none" stroke="#000" stroke-dasharray="none" stroke-width=".5pt" points="72.8 197.4 77.28 197.4"/><polyline fill="none" stroke="#000" stroke-dasharray="none" stroke-width=".5pt" points="72.8 121.8 77.28 121.8"/><polyline fill="none" stroke="#000" stroke-dasharray="none" stroke-width=".5pt" points="72.8 348.6 72.8 46.2"/><polyline fill="none" stroke="#000" stroke-dasharray="none" stroke-width=".5pt" points="520.8 273 516.32 273"/><polyline fill="none" stroke="#000" stroke-dasharray="none" stroke-width=".5pt" points="520.8 197.4 516.32 197.4"/><polyline fill="none" stroke="#000" stroke-dasharray="none" stroke-width=".5pt" points="520.8 121.8 516.32 121.8"/><polyline fill="none" stroke="#000" stroke-dasharray="none" stroke-width=".5pt" points="520.8 348.6 520.8 46.2"/><g><g><text x="0" y="0" fill="#000" font-family="Arial" font-size="16pt" text-anchor="end" transform="translate(63.840,355.800) rotate(-0.0)">0</text></g></g><g><g><text x="0" y="0" fill="#000" font-family="Arial" font-size="16pt" text-anchor="end" transform="translate(63.840,280.200) rotate(-0.0)">100</text></g></g><g><g><text x="0" y="0" fill="#000" font-family="Arial" font-size="16pt" text-anchor="end" transform="translate(63.840,204.600) rotate(-0.0)">200</text></g></g><g><g><text x="0" y="0" fill="#000" font-family="Arial" font-size="16pt" text-anchor="end" transform="translate(63.840,129.000) rotate(-0.0)">300</text></g></g><g><g><text x="0" y="0" fill="#000" font-family="Arial" font-size="16pt" text-anchor="end" transform="translate(63.840,53.400) rotate(-0.0)">400</text></g></g><polyline fill="none" stroke="#000" stroke-dasharray="none" stroke-width=".5pt" points="72.8 348.6 72.8 345.576"/><polyline fill="none" stroke="#000" stroke-dasharray="none" stroke-width=".5pt" points="72.8 348.6 72.8 348.6"/></g></g></g></svg>