<svg xmlns="http://www.w3.org/2000/svg" xmlns:xlink="http://www.w3.org/1999/xlink" width="100%" height="100%" preserveAspectRatio="xMinYMin meet" version="1.1" viewBox="0 0 560 420"><desc>Matlab Figure Converted by PLOT2SVG written by Juerg Schwizer</desc><g id="topgroup"><rect width="560" height="420" x="0" y="0" fill="#fff" stroke="none"/><g id="ID000000"><clipPath id="ID000001"><rect width="434" height="337.8" x="72.8" y="36"/></clipPath><polygon fill="#fff" fill-opacity="1" stroke="none" stroke-dasharray="none" stroke-opacity="1" stroke-width="2pt" points="72.8 373.8 506.8 373.8 506.8 36 72.8 36"/><polygon fill="#fff" fill-opacity="1" stroke="none" stroke-dasharray="none" stroke-opacity="1" stroke-width="2pt" points="72.8 373.8 506.8 373.8 506.8 373.8 72.8 373.8"/><polygon fill="#fff" fill-opacity="1" stroke="none" stroke-dasharray="none" stroke-opacity="1" stroke-width="2pt" points="72.8 373.8 72.8 373.8 72.8 36 72.8 36"/><polyline fill="none" stroke="#000" stroke-dasharray="2pt 2pt" stroke-width="2pt" points="112.255 373.8 112.255 36"/><polyline fill="none" stroke="#000" stroke-dasharray="2pt 2pt" stroke-width="2pt" points="151.709 373.8 151.709 36"/><polyline fill="none" stroke="#000" stroke-dasharray="2pt 2pt" stroke-width="2pt" points="191.164 373.8 191.164 36"/><polyline fill="none" stroke="#000" stroke-dasharray="2pt 2pt" stroke-width="2pt" points="230.618 373.8 230.618 36"/><polyline fill="none" stroke="#000" stroke-dasharray="2pt 2pt" stroke-width="2pt" points="270.073 373.8 270.073 36"/><polyline fill="none" stroke="#000" stroke-dasharray="2pt 2pt" stroke-width="2pt" points="309.527 373.8 309.527 36"/><polyline fill="none" stroke="#000" stroke-dasharray="2pt 2pt" stroke-width="2pt" points="348.982 373.8 348.982 36"/><polyline fill="none" stroke="#000" stroke-dasharray="2pt 2pt" stroke-width="2pt" points="388.436 373.8 388.436 36"/><polyline fill="none" stroke="#000" stroke-dasharray="2pt 2pt" stroke-width="2pt" points="427.891 373.8 427.891 36"/><polyline fill="none" stroke="#000" stroke-dasharray="2pt 2pt" stroke-width="2pt" points="467.345 373.8 467.345 36"/><polyline fill="none" stroke="#000" stroke-dasharray="2pt 2pt" stroke-width="2pt" points="72.8 317.5 506.8 317.5"/><polyline fill="none" stroke="#000" stroke-dasharray="2pt 2pt" stroke-width="2pt" points="72.8 261.2 506.8 261.2"/><polyline fill="none" stroke="#000" stroke-dasharray="2pt 2pt" stroke-width="2pt" points="72.8 204.9 506.8 204.9"/><polyline fill="none" stroke="#000" stroke-dasharray="2pt 2pt" stroke-width="2pt" points="72.8 148.6 506.8 148.6"/><polyline fill="none" stroke="#000" stroke-dasharray="2pt 2pt" stroke-width="2pt" points="72.8 92.3 506.8 92.3"/><polyline fill="none" stroke="#000" stroke-dasharray="2pt 2pt" stroke-width="2pt" points="112.255 373.8 112.255 373.8"/><polyline fill="none" stroke="#000" stroke-dasharray="2pt 2pt" stroke-width="2pt" points="151.709 373.8 151.709 373.8"/><polyline fill="none" stroke="#000" stroke-dasharray="2pt 2pt" stroke-width="2pt" points="191.164 373.8 191.164 373.8"/><polyline fill="none" stroke="#000" stroke-dasharray="2pt 2pt" stroke-width="2pt" points="230.618 373.8 230.618 373.8"/><polyline fill="none" stroke="#000" stroke-dasharray="2pt 2pt" stroke-width="2pt" points="270.073 373.8 270.073 373.8"/><polyline fill="none" stroke="#000" stroke-dasharray="2pt 2pt" stroke-width="2pt" points="309.527 373.8 309.527 373.8"/><polyline fill="none" stroke="#000" stroke-dasharray="2pt 2pt" stroke-width="2pt" points="348.982 373.8 348.982 373.8"/><polyline fill="none" stroke="#000" stroke-dasharray="2pt 2pt" stroke-width="2pt" points="388.436 373.8 388.436 373.8"/><polyline fill="none" stroke="#000" stroke-dasharray="2pt 2pt" stroke-width="2pt" points="427.891 373.8 427.891 373.8"/><polyline fill="none" stroke="#000" stroke-dasharray="2pt 2pt" stroke-width="2pt" points="467.345 373.8 467.345 373.8"/><polyline fill="none" stroke="#000" stroke-dasharray="2pt 2pt" stroke-width="2pt" points="72.8 373.8 506.8 373.8"/><polyline fill="none" stroke="#000" stroke-dasharray="2pt 2pt" stroke-width="2pt" points="72.8 317.5 72.8 317.5"/><polyline fill="none" stroke="#000" stroke-dasharray="2pt 2pt" stroke-width="2pt" points="72.8 261.2 72.8 261.2"/><polyline fill="none" stroke="#000" stroke-dasharray="2pt 2pt" stroke-width="2pt" points="72.8 204.9 72.8 204.9"/><polyline fill="none" stroke="#000" stroke-dasharray="2pt 2pt" stroke-width="2pt" points="72.8 148.6 72.8 148.6"/><polyline fill="none" stroke="#000" stroke-dasharray="2pt 2pt" stroke-width="2pt" points="72.8 92.3 72.8 92.3"/><polyline fill="none" stroke="#000" stroke-dasharray="2pt 2pt" stroke-width="2pt" points="72.8 373.8 72.8 36"/><g><g id="ID000002" clip-path="url(#ID000001)"><polyline fill="none" stroke="#00f" stroke-dasharray="none" stroke-width="8pt" points="72.8 294.98 112.255 279.216 151.709 233.05 191.164 181.254 230.618 123.828 270.073 87.796 309.527 69.78 348.982 70.906 388.436 110.316 427.891 169.994 467.345 239.806 506.8 281.468"/></g><g id="ID000003" clip-path="url(#ID000001)"><polyline fill="none" stroke="#007f00" stroke-dasharray="none" stroke-width="16" points="72.8 323.13 112.255 311.87 151.709 275.838 191.164 231.924 230.618 180.128 270.073 142.97 309.527 124.954 348.982 127.206 388.436 162.112 427.891 211.656 467.345 270.208 506.8 307.366"/></g><g id="ID000004" clip-path="url(#ID000001)"><polyline fill="none" stroke="red" stroke-dasharray="none" stroke-width="8pt" points="72.8 351.28 112.255 345.65 151.709 317.5 191.164 283.72 230.618 235.302 270.073 198.144 309.527 179.002 348.982 182.38 388.436 212.782 427.891 253.318 467.345 299.484 506.8 334.39"/></g><g id="ID000006"><g><g><text x="0" y="0" fill="#000" font-family="Arial" font-size="16pt" text-anchor="middle" transform="translate(34.300,206.399) rotate(-90.0)">T [°C]</text></g></g></g><g id="ID000007"><g><g><text x="0" y="0" fill="#000" font-family="Arial" font-size="16pt" text-anchor="middle" transform="translate(289.300,21.506) rotate(-0.0)">Temperature in Germany (1961-1990)</text></g></g></g></g><g><polyline fill="none" stroke="#000" stroke-dasharray="none" stroke-width="2pt" points="112.255 373.8 112.255 369.46"/><polyline fill="none" stroke="#000" stroke-dasharray="none" stroke-width="2pt" points="151.709 373.8 151.709 369.46"/><polyline fill="none" stroke="#000" stroke-dasharray="none" stroke-width="2pt" points="191.164 373.8 191.164 369.46"/><polyline fill="none" stroke="#000" stroke-dasharray="none" stroke-width="2pt" points="230.618 373.8 230.618 369.46"/><polyline fill="none" stroke="#000" stroke-dasharray="none" stroke-width="2pt" points="270.073 373.8 270.073 369.46"/><polyline fill="none" stroke="#000" stroke-dasharray="none" stroke-width="2pt" points="309.527 373.8 309.527 369.46"/><polyline fill="none" stroke="#000" stroke-dasharray="none" stroke-width="2pt" points="348.982 373.8 348.982 369.46"/><polyline fill="none" stroke="#000" stroke-dasharray="none" stroke-width="2pt" points="388.436 373.8 388.436 369.46"/><polyline fill="none" stroke="#000" stroke-dasharray="none" stroke-width="2pt" points="427.891 373.8 427.891 369.46"/><polyline fill="none" stroke="#000" stroke-dasharray="none" stroke-width="2pt" points="467.345 373.8 467.345 369.46"/><polyline fill="none" stroke="#000" stroke-dasharray="none" stroke-width="2pt" points="72.8 373.8 506.8 373.8"/><polyline fill="none" stroke="#000" stroke-dasharray="none" stroke-width="2pt" points="112.255 36 112.255 40.34"/><polyline fill="none" stroke="#000" stroke-dasharray="none" stroke-width="2pt" points="151.709 36 151.709 40.34"/><polyline fill="none" stroke="#000" stroke-dasharray="none" stroke-width="2pt" points="191.164 36 191.164 40.34"/><polyline fill="none" stroke="#000" stroke-dasharray="none" stroke-width="2pt" points="230.618 36 230.618 40.34"/><polyline fill="none" stroke="#000" stroke-dasharray="none" stroke-width="2pt" points="270.073 36 270.073 40.34"/><polyline fill="none" stroke="#000" stroke-dasharray="none" stroke-width="2pt" points="309.527 36 309.527 40.34"/><polyline fill="none" stroke="#000" stroke-dasharray="none" stroke-width="2pt" points="348.982 36 348.982 40.34"/><polyline fill="none" stroke="#000" stroke-dasharray="none" stroke-width="2pt" points="388.436 36 388.436 40.34"/><polyline fill="none" stroke="#000" stroke-dasharray="none" stroke-width="2pt" points="427.891 36 427.891 40.34"/><polyline fill="none" stroke="#000" stroke-dasharray="none" stroke-width="2pt" points="467.345 36 467.345 40.34"/><polyline fill="none" stroke="#000" stroke-dasharray="none" stroke-width="2pt" points="72.8 36 506.8 36"/><g><g><text x="0" y="0" fill="#000" font-family="Arial" font-size="16pt" text-anchor="middle" transform="translate(72.800,399.436) rotate(-0.0)">Januar</text></g></g><g><g><text x="0" y="0" fill="#000" font-family="Arial" font-size="16pt" text-anchor="middle" transform="translate(112.255,399.436) rotate(-0.0)">Februar</text></g></g><g><g><text x="0" y="0" fill="#000" font-family="Arial" font-size="16pt" text-anchor="middle" transform="translate(151.709,399.436) rotate(-0.0)">March</text></g></g><g><g><text x="0" y="0" fill="#000" font-family="Arial" font-size="16pt" text-anchor="middle" transform="translate(191.164,399.436) rotate(-0.0)">April</text></g></g><g><g><text x="0" y="0" fill="#000" font-family="Arial" font-size="16pt" text-anchor="middle" transform="translate(230.618,399.436) rotate(-0.0)">May</text></g></g><g><g><text x="0" y="0" fill="#000" font-family="Arial" font-size="16pt" text-anchor="middle" transform="translate(270.073,399.436) rotate(-0.0)">June</text></g></g><g><g><text x="0" y="0" fill="#000" font-family="Arial" font-size="16pt" text-anchor="middle" transform="translate(309.527,399.436) rotate(-0.0)">July</text></g></g><g><g><text x="0" y="0" fill="#000" font-family="Arial" font-size="16pt" text-anchor="middle" transform="translate(348.982,399.436) rotate(-0.0)">August</text></g></g><g><g><text x="0" y="0" fill="#000" font-family="Arial" font-size="16pt" text-anchor="middle" transform="translate(388.436,399.436) rotate(-0.0)">September</text></g></g><g><g><text x="0" y="0" fill="#000" font-family="Arial" font-size="16pt" text-anchor="middle" transform="translate(427.891,399.436) rotate(-0.0)">Oktober</text></g></g><g><g><text x="0" y="0" fill="#000" font-family="Arial" font-size="16pt" text-anchor="middle" transform="translate(467.345,399.436) rotate(-0.0)">November</text></g></g><g><g><text x="0" y="0" fill="#000" font-family="Arial" font-size="16pt" text-anchor="middle" transform="translate(506.800,399.436) rotate(-0.0)">December</text></g></g><polyline fill="none" stroke="#000" stroke-dasharray="none" stroke-width="2pt" points="72.8 317.5 77.14 317.5"/><polyline fill="none" stroke="#000" stroke-dasharray="none" stroke-width="2pt" points="72.8 261.2 77.14 261.2"/><polyline fill="none" stroke="#000" stroke-dasharray="none" stroke-width="2pt" points="72.8 204.9 77.14 204.9"/><polyline fill="none" stroke="#000" stroke-dasharray="none" stroke-width="2pt" points="72.8 148.6 77.14 148.6"/><polyline fill="none" stroke="#000" stroke-dasharray="none" stroke-width="2pt" points="72.8 92.3 77.14 92.3"/><polyline fill="none" stroke="#000" stroke-dasharray="none" stroke-width="2pt" points="72.8 373.8 72.8 36"/><polyline fill="none" stroke="#000" stroke-dasharray="none" stroke-width="2pt" points="506.8 317.5 502.46 317.5"/><polyline fill="none" stroke="#000" stroke-dasharray="none" stroke-width="2pt" points="506.8 261.2 502.46 261.2"/><polyline fill="none" stroke="#000" stroke-dasharray="none" stroke-width="2pt" points="506.8 204.9 502.46 204.9"/><polyline fill="none" stroke="#000" stroke-dasharray="none" stroke-width="2pt" points="506.8 148.6 502.46 148.6"/><polyline fill="none" stroke="#000" stroke-dasharray="none" stroke-width="2pt" points="506.8 92.3 502.46 92.3"/><polyline fill="none" stroke="#000" stroke-dasharray="none" stroke-width="2pt" points="506.8 373.8 506.8 36"/><g><g><text x="0" y="0" fill="#000" font-family="Arial" font-size="16pt" text-anchor="end" transform="translate(64.120,381.000) rotate(-0.0)">-5</text></g></g><g><g><text x="0" y="0" fill="#000" font-family="Arial" font-size="16pt" text-anchor="end" transform="translate(64.120,324.700) rotate(-0.0)">0</text></g></g><g><g><text x="0" y="0" fill="#000" font-family="Arial" font-size="16pt" text-anchor="end" transform="translate(64.120,268.400) rotate(-0.0)">5</text></g></g><g><g><text x="0" y="0" fill="#000" font-family="Arial" font-size="16pt" text-anchor="end" transform="translate(64.120,212.100) rotate(-0.0)">10</text></g></g><g><g><text x="0" y="0" fill="#000" font-family="Arial" font-size="16pt" text-anchor="end" transform="translate(64.120,155.800) rotate(-0.0)">15</text></g></g><g><g><text x="0" y="0" fill="#000" font-family="Arial" font-size="16pt" text-anchor="end" transform="translate(64.120,99.500) rotate(-0.0)">20</text></g></g><g><g><text x="0" y="0" fill="#000" font-family="Arial" font-size="16pt" text-anchor="end" transform="translate(64.120,43.200) rotate(-0.0)">25</text></g></g><polyline fill="none" stroke="#000" stroke-dasharray="none" stroke-width="2pt" points="72.8 373.8 72.8 370.422"/><polyline fill="none" stroke="#000" stroke-dasharray="none" stroke-width="2pt" points="72.8 373.8 72.8 373.8"/></g></g><g id="ID000010"><clipPath id="ID000011"><rect width="119" height="87.667" x="382.833" y="39.167"/></clipPath><polygon fill="#fff" fill-opacity="1" stroke="none" stroke-dasharray="none" stroke-opacity="1" stroke-width=".5pt" points="382.833 126.833 501.833 126.833 501.833 39.167 382.833 39.167"/><polygon fill="#fff" fill-opacity="1" stroke="none" stroke-dasharray="none" stroke-opacity="1" stroke-width=".5pt" points="382.833 39.167 501.833 39.167 501.833 39.167 382.833 39.167"/><polygon fill="#fff" fill-opacity="1" stroke="none" stroke-dasharray="none" stroke-opacity="1" stroke-width=".5pt" points="382.833 126.833 382.833 126.833 382.833 39.167 382.833 39.167"/><g><g id="ID000012"><g><g><text x="0" y="0" fill="#000" font-family="Arial" font-size="16pt" text-anchor="start" transform="translate(435.333,62.804) rotate(-0.0)">Max T</text></g></g></g><g id="ID000013" clip-path="url(#ID000011)"><polyline fill="none" stroke="#00f" stroke-dasharray="none" stroke-width="8pt" points="390.833 55.333 430.833 55.333"/></g><g id="ID000015"><g><g><text x="0" y="0" fill="#000" font-family="Arial" font-size="16pt" text-anchor="start" transform="translate(435.333,91.694) rotate(-0.0)">Avg T</text></g></g></g><g id="ID000016" clip-path="url(#ID000011)"><polyline fill="none" stroke="#007f00" stroke-dasharray="none" stroke-width="16" points="390.833 83 430.833 83"/></g><g id="ID000018"><g><g><text x="0" y="0" fill="#000" font-family="Arial" font-size="16pt" text-anchor="start" transform="translate(435.333,119.588) rotate(-0.0)">Min T</text></g></g></g><g id="ID000019" clip-path="url(#ID000011)"><polyline fill="none" stroke="red" stroke-dasharray="none" stroke-width="8pt" points="390.833 110.667 430.833 110.667"/></g></g><g><polyline fill="none" stroke="#000" stroke-dasharray="none" stroke-width=".5pt" points="382.833 126.833 501.833 126.833"/><polyline fill="none" stroke="#000" stroke-dasharray="none" stroke-width=".5pt" points="382.833 39.167 501.833 39.167"/><polyline fill="none" stroke="#000" stroke-dasharray="none" stroke-width=".5pt" points="382.833 126.833 382.833 39.167"/><polyline fill="none" stroke="#000" stroke-dasharray="none" stroke-width=".5pt" points="501.833 126.833 501.833 39.167"/><polyline fill="none" stroke="#000" stroke-dasharray="none" stroke-width=".5pt" points="382.833 126.833 382.833 125.957"/><polyline fill="none" stroke="#000" stroke-dasharray="none" stroke-width=".5pt" points="382.833 126.833 382.833 126.833"/></g></g></g></svg>